<?xml version="1.0" standalone="no"?>
<!DOCTYPE svg PUBLIC "-//W3C//DTD SVG 1.1//EN"
"http://www.w3.org/Graphics/SVG/1.1/DTD/svg11.dtd">

<svg width="350" height="120" view_box="0 0 350 120"
xmlns="http://www.w3.org/2000/svg"
xmlns:link="http://www.w3.org/1999/xlink">\n\n<desc>Généré par Mocodo 2.3.7 le Wed, 31 Mar 2021 04:43:07</desc>

<rect id="frame" x="0" y="0" width="350" height="120" fill="#ffffbf" stroke="none" stroke-width="0"/>

<!-- Association appartient -->
<line x1="63" y1="60" x2="188" y2="60" stroke="#74add1" stroke-width="2"/>
<text x="122" y="77.0" fill="#d73027" font-family="Verdana" font-size="12">1,1</text>
<line x1="300" y1="60" x2="188" y2="60" stroke="#74add1" stroke-width="2"/>
<text x="232" y="77.0" fill="#d73027" font-family="Verdana" font-size="12">0,N</text>
<g id="association-appartient">
	<path d="M 213 35 a 14 14 90 0 1 14 14 V 60 h -78 V 49 a 14 14 90 0 1 14 -14" fill="#abd9e9" stroke="#abd9e9" stroke-width="0"/>
	<path d="M 227 60.0 v 11 a 14 14 90 0 1 -14 14 H 163 a 14 14 90 0 1 -14 -14 V 60.0 H 78" fill="#e0f3f8" stroke="#e0f3f8" stroke-width="0"/>
	<rect x="149" y="35" width="78" height="50" fill="none" rx="14" stroke="#74add1" stroke-width="2"/>
	<line x1="149" y1="60" x2="227" y2="60" stroke="#74add1" stroke-width="1"/>
	<text x="156" y="52.7" fill="#000000" font-family="Verdana" font-size="12">appartient</text>
</g>

<!-- Entity ARTICLE -->
<g id="entity-ARTICLE">
	<g id="frame-ARTICLE">
		<rect x="9" y="9" width="108" height="25" fill="#fdae61" stroke="#fdae61" stroke-width="0"/>
		<rect x="9" y="34.0" width="108" height="77" fill="#fee090" stroke="#fee090" stroke-width="0"/>
		<rect x="9" y="9" width="108" height="102" fill="none" stroke="#f46d43" stroke-width="2"/>
		<line x1="9" y1="34" x2="117" y2="34" stroke="#f46d43" stroke-width="1"/>
	</g>
	<text x="36" y="26.7" fill="#000000" font-family="Verdana" font-size="12">ARTICLE</text>
	<text x="14" y="51.7" fill="#000000" font-family="Verdana" font-size="12">identifiant texte</text>
	<line x1="14" y1="54" x2="111" y2="54" stroke="#000000" stroke-width="1"/>
	<text x="14" y="68.8" fill="#000000" font-family="Verdana" font-size="12">titre</text>
	<text x="14" y="85.8" fill="#000000" font-family="Verdana" font-size="12">extrait</text>
	<text x="14" y="102.8" fill="#000000" font-family="Verdana" font-size="12">contenu</text>
</g>

<!-- Entity CATEGORIE -->
<g id="entity-CATEGORIE">
	<g id="frame-CATEGORIE">
		<rect x="259" y="26" width="82" height="25" fill="#fdae61" stroke="#fdae61" stroke-width="0"/>
		<rect x="259" y="51.0" width="82" height="43" fill="#fee090" stroke="#fee090" stroke-width="0"/>
		<rect x="259" y="26" width="82" height="68" fill="none" stroke="#f46d43" stroke-width="2"/>
		<line x1="259" y1="51" x2="341" y2="51" stroke="#f46d43" stroke-width="1"/>
	</g>
	<text x="264" y="43.7" fill="#000000" font-family="Verdana" font-size="12">CATEGORIE</text>
	<text x="264" y="68.8" fill="#000000" font-family="Verdana" font-size="12">route</text>
	<line x1="264" y1="71" x2="297" y2="71" stroke="#000000" stroke-width="1"/>
	<text x="264" y="85.8" fill="#000000" font-family="Verdana" font-size="12">libellé</text>
</g>
</svg>